<svg width="108" height="108" viewBox="0 0 108 108" fill="none" xmlns="http://www.w3.org/2000/svg">
<g filter="url(#filter0_d_38_25)">
<path d="M2 16C2 7.16345 9.16344 0 18 0H86C94.8366 0 102 7.16344 102 16V84C102 92.8366 94.8366 100 86 100H18C9.16345 100 2 92.8366 2 84V16Z" fill="white"/>
</g>
<path d="M20.5333 74V30.8H42.72C45.3156 30.8 47.5911 31.2622 49.5467 32.1867C51.5022 33.1111 53.0311 34.4089 54.1333 36.08C55.2356 37.7156 55.7867 39.6178 55.7867 41.7867C55.7867 43.9556 55.2178 45.8044 54.08 47.3333C52.9422 48.8267 51.3956 49.9467 49.44 50.6933V50.9067C51.1111 51.3333 52.5689 52.0444 53.8133 53.04C55.0933 54.0356 56.0889 55.2622 56.8 56.72C57.5467 58.1778 57.92 59.8311 57.92 61.68C57.92 64.1333 57.3156 66.2844 56.1067 68.1333C54.8978 69.9822 53.2267 71.4222 51.0933 72.4533C48.9956 73.4844 46.5244 74 43.68 74H20.5333ZM29.5467 66.1067H42.08C44.2489 66.1067 45.92 65.6444 47.0933 64.72C48.2667 63.76 48.8533 62.3911 48.8533 60.6133C48.8533 58.8356 48.2667 57.4844 47.0933 56.56C45.9556 55.6356 44.3022 55.1733 42.1333 55.1733H29.5467V66.1067ZM29.5467 48.0267H41.44C43.1467 48.0267 44.4444 47.6356 45.3333 46.8533C46.2578 46.0356 46.72 44.8622 46.72 43.3333C46.72 41.8044 46.2578 40.6489 45.3333 39.8667C44.4444 39.0844 43.1467 38.6933 41.44 38.6933H29.5467V48.0267ZM66.3558 74V50.7467H61.9825V42H70.9425V48.2933H73.1825C74.0358 46.0533 75.3869 44.3822 77.2358 43.28C79.0847 42.1778 81.1647 41.6267 83.4758 41.6267H86.1958V49.3067H83.1025C80.3292 49.3067 78.2847 50.0889 76.9692 51.6533C75.6892 53.2178 75.0492 55.28 75.0492 57.84V74H66.3558Z" fill="black"/>
<defs>
<filter id="filter0_d_38_25" x="0" y="0" width="108" height="108" filterUnits="userSpaceOnUse" color-interpolation-filters="sRGB">
<feFlood flood-opacity="0" result="BackgroundImageFix"/>
<feColorMatrix in="SourceAlpha" type="matrix" values="0 0 0 0 0 0 0 0 0 0 0 0 0 0 0 0 0 0 127 0" result="hardAlpha"/>
<feOffset dx="2" dy="4"/>
<feGaussianBlur stdDeviation="2"/>
<feComposite in2="hardAlpha" operator="out"/>
<feColorMatrix type="matrix" values="0 0 0 0 0 0 0 0 0 0 0 0 0 0 0 0 0 0 0.5 0"/>
<feBlend mode="normal" in2="BackgroundImageFix" result="effect1_dropShadow_38_25"/>
<feBlend mode="normal" in="SourceGraphic" in2="effect1_dropShadow_38_25" result="shape"/>
</filter>
</defs>
</svg>
